<mxfile host="app.diagrams.net" modified="2023-05-03T20:12:13.895Z" agent="Mozilla/5.0 (Windows NT 10.0; Win64; x64) AppleWebKit/537.36 (KHTML, like Gecko) Chrome/112.0.0.0 Safari/537.36" etag="p_SQ1xWBm6cYWyTas8zd" version="21.2.7" type="github">
  <diagram name="Página-1" id="rXwDOwcGyp0zqyhnL_8g">
    <mxGraphModel dx="1050" dy="581" grid="1" gridSize="10" guides="1" tooltips="1" connect="1" arrows="1" fold="1" page="1" pageScale="1" pageWidth="827" pageHeight="1169" math="0" shadow="0">
      <root>
        <mxCell id="0" />
        <mxCell id="1" parent="0" />
        <mxCell id="qewj0Nf-r2VsbsXrX6gr-1" value="" style="rounded=0;whiteSpace=wrap;html=1;" parent="1" vertex="1">
          <mxGeometry x="194" y="40" width="486" height="520" as="geometry" />
        </mxCell>
        <mxCell id="qewj0Nf-r2VsbsXrX6gr-2" style="rounded=0;orthogonalLoop=1;jettySize=auto;html=1;endArrow=none;endFill=0;" parent="1" source="qewj0Nf-r2VsbsXrX6gr-5" target="qewj0Nf-r2VsbsXrX6gr-10" edge="1">
          <mxGeometry relative="1" as="geometry" />
        </mxCell>
        <mxCell id="qewj0Nf-r2VsbsXrX6gr-21" style="rounded=0;orthogonalLoop=1;jettySize=auto;html=1;endArrow=none;endFill=0;" parent="1" source="qewj0Nf-r2VsbsXrX6gr-5" target="qewj0Nf-r2VsbsXrX6gr-20" edge="1">
          <mxGeometry relative="1" as="geometry" />
        </mxCell>
        <mxCell id="qewj0Nf-r2VsbsXrX6gr-5" value="Usuário logado" style="shape=umlActor;verticalLabelPosition=bottom;verticalAlign=top;html=1;" parent="1" vertex="1">
          <mxGeometry x="130" y="280" width="30" height="60" as="geometry" />
        </mxCell>
        <mxCell id="qewj0Nf-r2VsbsXrX6gr-6" style="rounded=0;orthogonalLoop=1;jettySize=auto;html=1;endArrow=none;endFill=0;" parent="1" source="qewj0Nf-r2VsbsXrX6gr-7" target="qewj0Nf-r2VsbsXrX6gr-14" edge="1">
          <mxGeometry relative="1" as="geometry" />
        </mxCell>
        <mxCell id="qewj0Nf-r2VsbsXrX6gr-41" style="rounded=0;orthogonalLoop=1;jettySize=auto;html=1;endArrow=none;endFill=0;" parent="1" source="qewj0Nf-r2VsbsXrX6gr-7" target="qewj0Nf-r2VsbsXrX6gr-39" edge="1">
          <mxGeometry relative="1" as="geometry" />
        </mxCell>
        <mxCell id="CWLkJmww6V5QbbNf1KKP-19" style="edgeStyle=orthogonalEdgeStyle;rounded=0;orthogonalLoop=1;jettySize=auto;html=1;endArrow=block;endFill=0;" edge="1" parent="1" source="qewj0Nf-r2VsbsXrX6gr-7" target="qewj0Nf-r2VsbsXrX6gr-9">
          <mxGeometry relative="1" as="geometry">
            <Array as="points">
              <mxPoint x="800" y="220" />
              <mxPoint x="800" y="380" />
            </Array>
          </mxGeometry>
        </mxCell>
        <mxCell id="qewj0Nf-r2VsbsXrX6gr-7" value="Casa de Santo" style="shape=umlActor;verticalLabelPosition=bottom;verticalAlign=top;html=1;" parent="1" vertex="1">
          <mxGeometry x="730" y="190" width="30" height="60" as="geometry" />
        </mxCell>
        <mxCell id="qewj0Nf-r2VsbsXrX6gr-8" style="rounded=0;orthogonalLoop=1;jettySize=auto;html=1;endArrow=none;endFill=0;" parent="1" source="qewj0Nf-r2VsbsXrX6gr-9" target="qewj0Nf-r2VsbsXrX6gr-17" edge="1">
          <mxGeometry relative="1" as="geometry" />
        </mxCell>
        <mxCell id="qewj0Nf-r2VsbsXrX6gr-42" style="rounded=0;orthogonalLoop=1;jettySize=auto;html=1;endArrow=none;endFill=0;" parent="1" source="qewj0Nf-r2VsbsXrX6gr-9" target="qewj0Nf-r2VsbsXrX6gr-39" edge="1">
          <mxGeometry relative="1" as="geometry" />
        </mxCell>
        <mxCell id="qewj0Nf-r2VsbsXrX6gr-9" value="Babá/Yá" style="shape=umlActor;verticalLabelPosition=bottom;verticalAlign=top;html=1;" parent="1" vertex="1">
          <mxGeometry x="730" y="350" width="30" height="60" as="geometry" />
        </mxCell>
        <mxCell id="qewj0Nf-r2VsbsXrX6gr-22" style="rounded=0;orthogonalLoop=1;jettySize=auto;html=1;endArrow=none;endFill=0;" parent="1" source="qewj0Nf-r2VsbsXrX6gr-10" target="qewj0Nf-r2VsbsXrX6gr-11" edge="1">
          <mxGeometry relative="1" as="geometry" />
        </mxCell>
        <mxCell id="qewj0Nf-r2VsbsXrX6gr-26" style="edgeStyle=orthogonalEdgeStyle;rounded=0;orthogonalLoop=1;jettySize=auto;html=1;entryX=0.577;entryY=1;entryDx=0;entryDy=0;entryPerimeter=0;endArrow=open;endFill=0;dashed=1;" parent="1" source="qewj0Nf-r2VsbsXrX6gr-10" target="qewj0Nf-r2VsbsXrX6gr-23" edge="1">
          <mxGeometry relative="1" as="geometry" />
        </mxCell>
        <mxCell id="qewj0Nf-r2VsbsXrX6gr-31" style="rounded=0;orthogonalLoop=1;jettySize=auto;html=1;endArrow=none;endFill=0;exitX=0.5;exitY=1;exitDx=0;exitDy=0;" parent="1" source="qewj0Nf-r2VsbsXrX6gr-10" target="qewj0Nf-r2VsbsXrX6gr-12" edge="1">
          <mxGeometry relative="1" as="geometry" />
        </mxCell>
        <mxCell id="CWLkJmww6V5QbbNf1KKP-17" style="rounded=0;orthogonalLoop=1;jettySize=auto;html=1;endArrow=none;endFill=0;" edge="1" parent="1" source="qewj0Nf-r2VsbsXrX6gr-10" target="qewj0Nf-r2VsbsXrX6gr-39">
          <mxGeometry relative="1" as="geometry" />
        </mxCell>
        <mxCell id="qewj0Nf-r2VsbsXrX6gr-10" value="Acessar" style="ellipse;whiteSpace=wrap;html=1;" parent="1" vertex="1">
          <mxGeometry x="210" y="240" width="130" height="60" as="geometry" />
        </mxCell>
        <mxCell id="qewj0Nf-r2VsbsXrX6gr-11" value="Pesquisa endereço de casa de Santo" style="ellipse;whiteSpace=wrap;html=1;" parent="1" vertex="1">
          <mxGeometry x="320" y="170" width="130" height="70" as="geometry" />
        </mxCell>
        <mxCell id="qewj0Nf-r2VsbsXrX6gr-12" value="Pesquisa endereço Babá/Yá de Santo" style="ellipse;whiteSpace=wrap;html=1;" parent="1" vertex="1">
          <mxGeometry x="349" y="340" width="130" height="70" as="geometry" />
        </mxCell>
        <mxCell id="qewj0Nf-r2VsbsXrX6gr-13" style="rounded=0;orthogonalLoop=1;jettySize=auto;html=1;endArrow=open;endFill=0;dashed=1;" parent="1" source="qewj0Nf-r2VsbsXrX6gr-14" target="qewj0Nf-r2VsbsXrX6gr-11" edge="1">
          <mxGeometry relative="1" as="geometry" />
        </mxCell>
        <mxCell id="qewj0Nf-r2VsbsXrX6gr-14" value="Enxergará dados da casa, fotos, quantidade de filhos, clientes e infos.&amp;nbsp;" style="ellipse;whiteSpace=wrap;html=1;" parent="1" vertex="1">
          <mxGeometry x="488.25" y="70" width="150" height="87.5" as="geometry" />
        </mxCell>
        <mxCell id="qewj0Nf-r2VsbsXrX6gr-15" value="Extends" style="text;html=1;strokeColor=none;fillColor=none;align=center;verticalAlign=middle;whiteSpace=wrap;rounded=0;" parent="1" vertex="1">
          <mxGeometry x="442" y="148.13" width="60" height="21" as="geometry" />
        </mxCell>
        <mxCell id="qewj0Nf-r2VsbsXrX6gr-16" style="rounded=0;orthogonalLoop=1;jettySize=auto;html=1;entryX=0.5;entryY=1;entryDx=0;entryDy=0;endArrow=open;endFill=0;dashed=1;startArrow=none;startFill=0;" parent="1" source="qewj0Nf-r2VsbsXrX6gr-17" target="qewj0Nf-r2VsbsXrX6gr-12" edge="1">
          <mxGeometry relative="1" as="geometry" />
        </mxCell>
        <mxCell id="qewj0Nf-r2VsbsXrX6gr-17" value="Enxergará fotos, quantidade de clientes e infos.&amp;nbsp;" style="ellipse;whiteSpace=wrap;html=1;" parent="1" vertex="1">
          <mxGeometry x="442" y="460" width="160" height="93.75" as="geometry" />
        </mxCell>
        <mxCell id="qewj0Nf-r2VsbsXrX6gr-18" value="Extends" style="text;html=1;strokeColor=none;fillColor=none;align=center;verticalAlign=middle;whiteSpace=wrap;rounded=0;" parent="1" vertex="1">
          <mxGeometry x="424" y="439" width="60" height="21" as="geometry" />
        </mxCell>
        <mxCell id="qewj0Nf-r2VsbsXrX6gr-19" value="Aplicativo Saravá" style="text;align=center;fontStyle=1;verticalAlign=middle;spacingLeft=3;spacingRight=3;strokeColor=none;rotatable=0;points=[[0,0.5],[1,0.5]];portConstraint=eastwest;html=1;" parent="1" vertex="1">
          <mxGeometry x="360.5" y="50" width="113" height="26" as="geometry" />
        </mxCell>
        <mxCell id="qewj0Nf-r2VsbsXrX6gr-35" style="rounded=0;orthogonalLoop=1;jettySize=auto;html=1;dashed=1;endArrow=open;endFill=0;entryX=0.5;entryY=0;entryDx=0;entryDy=0;" parent="1" source="qewj0Nf-r2VsbsXrX6gr-20" target="qewj0Nf-r2VsbsXrX6gr-32" edge="1">
          <mxGeometry relative="1" as="geometry">
            <mxPoint x="275" y="450" as="targetPoint" />
          </mxGeometry>
        </mxCell>
        <mxCell id="qewj0Nf-r2VsbsXrX6gr-20" value="Sair" style="ellipse;whiteSpace=wrap;html=1;" parent="1" vertex="1">
          <mxGeometry x="210" y="329" width="130" height="60" as="geometry" />
        </mxCell>
        <mxCell id="qewj0Nf-r2VsbsXrX6gr-23" value="Verificar login e senha de acesso" style="ellipse;whiteSpace=wrap;html=1;" parent="1" vertex="1">
          <mxGeometry x="200" y="98.13" width="130" height="50" as="geometry" />
        </mxCell>
        <mxCell id="qewj0Nf-r2VsbsXrX6gr-27" value="Incluid" style="text;html=1;strokeColor=none;fillColor=none;align=center;verticalAlign=middle;whiteSpace=wrap;rounded=0;" parent="1" vertex="1">
          <mxGeometry x="245" y="190" width="60" height="30" as="geometry" />
        </mxCell>
        <mxCell id="qewj0Nf-r2VsbsXrX6gr-32" value="Retornar usuário para tela de usuário não logado caso senha ou login de acesso errado" style="ellipse;whiteSpace=wrap;html=1;" parent="1" vertex="1">
          <mxGeometry x="200" y="440" width="170" height="95.25" as="geometry" />
        </mxCell>
        <mxCell id="qewj0Nf-r2VsbsXrX6gr-37" value="Incluid" style="text;html=1;strokeColor=none;fillColor=none;align=center;verticalAlign=middle;whiteSpace=wrap;rounded=0;" parent="1" vertex="1">
          <mxGeometry x="245" y="400" width="60" height="30" as="geometry" />
        </mxCell>
        <mxCell id="CWLkJmww6V5QbbNf1KKP-12" style="rounded=0;orthogonalLoop=1;jettySize=auto;html=1;endArrow=none;endFill=0;dashed=1;startArrow=open;startFill=0;" edge="1" parent="1" source="qewj0Nf-r2VsbsXrX6gr-39" target="CWLkJmww6V5QbbNf1KKP-3">
          <mxGeometry relative="1" as="geometry" />
        </mxCell>
        <mxCell id="CWLkJmww6V5QbbNf1KKP-15" style="rounded=0;orthogonalLoop=1;jettySize=auto;html=1;endArrow=open;endFill=0;dashed=1;" edge="1" parent="1" source="qewj0Nf-r2VsbsXrX6gr-39" target="CWLkJmww6V5QbbNf1KKP-14">
          <mxGeometry relative="1" as="geometry" />
        </mxCell>
        <mxCell id="qewj0Nf-r2VsbsXrX6gr-39" value="Usuário poderá verificar agenda, contatar por chat e agendar atendimento" style="ellipse;whiteSpace=wrap;html=1;" parent="1" vertex="1">
          <mxGeometry x="400" y="240" width="160" height="90" as="geometry" />
        </mxCell>
        <mxCell id="qewj0Nf-r2VsbsXrX6gr-45" style="rounded=0;orthogonalLoop=1;jettySize=auto;html=1;endArrow=block;endFill=0;" parent="1" source="qewj0Nf-r2VsbsXrX6gr-44" target="qewj0Nf-r2VsbsXrX6gr-5" edge="1">
          <mxGeometry relative="1" as="geometry" />
        </mxCell>
        <mxCell id="qewj0Nf-r2VsbsXrX6gr-44" value="Fornecedor" style="shape=umlActor;verticalLabelPosition=bottom;verticalAlign=top;html=1;outlineConnect=0;" parent="1" vertex="1">
          <mxGeometry x="20" y="280" width="30" height="60" as="geometry" />
        </mxCell>
        <mxCell id="CWLkJmww6V5QbbNf1KKP-8" style="rounded=0;orthogonalLoop=1;jettySize=auto;html=1;entryX=0.5;entryY=0.5;entryDx=0;entryDy=0;entryPerimeter=0;dashed=1;endArrow=open;endFill=0;" edge="1" parent="1" source="CWLkJmww6V5QbbNf1KKP-3" target="qewj0Nf-r2VsbsXrX6gr-9">
          <mxGeometry relative="1" as="geometry" />
        </mxCell>
        <mxCell id="CWLkJmww6V5QbbNf1KKP-3" value="Vincular a casa" style="ellipse;whiteSpace=wrap;html=1;" vertex="1" parent="1">
          <mxGeometry x="495.25" y="390" width="116.5" height="60" as="geometry" />
        </mxCell>
        <mxCell id="CWLkJmww6V5QbbNf1KKP-9" value="Extends" style="text;html=1;strokeColor=none;fillColor=none;align=center;verticalAlign=middle;whiteSpace=wrap;rounded=0;" vertex="1" parent="1">
          <mxGeometry x="620" y="389" width="60" height="21" as="geometry" />
        </mxCell>
        <mxCell id="CWLkJmww6V5QbbNf1KKP-13" value="Extends" style="text;html=1;strokeColor=none;fillColor=none;align=center;verticalAlign=middle;whiteSpace=wrap;rounded=0;" vertex="1" parent="1">
          <mxGeometry x="502" y="359" width="60" height="21" as="geometry" />
        </mxCell>
        <mxCell id="CWLkJmww6V5QbbNf1KKP-14" value="Aplicar nota a casa ou ao Babá/Yá pelo atendimento prestado" style="ellipse;whiteSpace=wrap;html=1;" vertex="1" parent="1">
          <mxGeometry x="520" y="169.13" width="136" height="75" as="geometry" />
        </mxCell>
        <mxCell id="CWLkJmww6V5QbbNf1KKP-18" value="Incluid" style="text;html=1;strokeColor=none;fillColor=none;align=center;verticalAlign=middle;whiteSpace=wrap;rounded=0;rotation=15;" vertex="1" parent="1">
          <mxGeometry x="488.25" y="223.13" width="60" height="21" as="geometry" />
        </mxCell>
      </root>
    </mxGraphModel>
  </diagram>
</mxfile>
